<svg width="598" height="104" viewBox="0 0 598 104" fill="none" xmlns="http://www.w3.org/2000/svg">
<path d="M140.9 88.45C138.667 88.45 136.967 87.7833 135.8 86.45C134.667 85.15 133.967 83.1333 133.7 80.4C133.633 79.3333 133.583 77.9667 133.55 76.3C133.517 74.6333 133.5 72.7667 133.5 70.7C133.5 68.6333 133.517 66.4833 133.55 64.25C133.583 61.9833 133.6 59.75 133.6 57.55C133.633 55.3167 133.65 53.2167 133.65 51.25C133.683 49.2833 133.7 47.5333 133.7 46C133.7 43.8667 133.433 42.4 132.9 41.6C132.367 40.8 131.167 40.4 129.3 40.4C127.333 40.4 125.35 40.55 123.35 40.85C121.383 41.15 119.417 41.3 117.45 41.3C116.283 41.3 115.233 41.0833 114.3 40.65C113.367 40.1833 112.633 39.5 112.1 38.6C111.6 37.7 111.35 36.6167 111.35 35.35C111.35 33.8833 112.017 32.6167 113.35 31.55C114.683 30.4833 116.5 29.6 118.8 28.9C121.133 28.1667 123.833 27.5833 126.9 27.15C129.967 26.7167 133.25 26.4167 136.75 26.25C140.25 26.05 143.8 25.95 147.4 25.95C150 25.95 152.583 26 155.15 26.1C157.75 26.2 160.183 26.4167 162.45 26.75C164.75 27.05 166.767 27.5167 168.5 28.15C170.233 28.7833 171.6 29.6333 172.6 30.7C173.633 31.7333 174.15 33.0333 174.15 34.6C174.15 36.0333 173.867 37.25 173.3 38.25C172.767 39.2167 171.983 39.95 170.95 40.45C169.917 40.95 168.65 41.2 167.15 41.2C165.35 41.2 163.9 41.15 162.8 41.05C161.7 40.95 160.367 40.9 158.8 40.9C156.567 40.9 154.917 41.1 153.85 41.5C152.817 41.9 152.15 42.65 151.85 43.75C151.55 44.85 151.367 46.4833 151.3 48.65C151.233 49.9833 151.15 51.4167 151.05 52.95C150.983 54.4833 150.883 56.0833 150.75 57.75C150.65 59.4167 150.517 61.1 150.35 62.8C150.217 64.5 150.05 66.1833 149.85 67.85C149.683 69.4833 149.517 71.0833 149.35 72.65C149.183 74.1833 149 75.6333 148.8 77C148.6 78.3667 148.4 79.6 148.2 80.7C147.667 82.6 147.117 84.1167 146.55 85.25C145.983 86.3833 145.267 87.2 144.4 87.7C143.533 88.2 142.367 88.45 140.9 88.45ZM192.178 87.5C190.978 87.5 189.911 87.3 188.978 86.9C188.045 86.5 187.211 85.95 186.478 85.25C185.778 84.55 185.128 83.7167 184.528 82.75C183.861 81.4833 183.245 80.0333 182.678 78.4C182.145 76.7667 181.695 75.05 181.328 73.25C180.961 71.45 180.678 69.65 180.478 67.85C180.278 66.05 180.178 64.35 180.178 62.75C180.178 57.25 181.261 52.6 183.428 48.8C185.595 44.9667 188.678 42.05 192.678 40.05C196.711 38.05 201.478 37.05 206.978 37.05C209.411 37.05 211.761 37.2333 214.028 37.6C216.295 37.9667 218.328 38.5333 220.128 39.3C221.928 40.0333 223.345 40.9667 224.378 42.1C225.445 43.2 225.978 44.4833 225.978 45.95C225.978 47.2833 225.711 48.3333 225.178 49.1C224.645 49.8667 223.945 50.4 223.078 50.7C222.211 51 221.311 51.15 220.378 51.15C218.711 51.15 216.978 50.9 215.178 50.4C213.411 49.9 211.178 49.65 208.478 49.65C204.678 49.65 201.795 50.8167 199.828 53.15C197.895 55.45 196.928 58.65 196.928 62.75C196.928 64.25 196.995 65.7167 197.128 67.15C197.261 68.55 197.428 69.9 197.628 71.2C197.861 72.5 198.078 73.7167 198.278 74.85C198.511 75.9833 198.695 77 198.828 77.9C198.961 78.8 199.028 79.5833 199.028 80.25C199.028 82.75 198.461 84.5833 197.328 85.75C196.228 86.9167 194.511 87.5 192.178 87.5ZM250.588 91.3C247.821 91.3 245.171 91.0333 242.638 90.5C240.138 90 237.888 89.15 235.888 87.95C233.921 86.7833 232.371 85.2333 231.238 83.3C230.104 81.3667 229.538 79.0167 229.538 76.25C229.538 73.2167 230.288 70.7167 231.788 68.75C233.288 66.75 235.321 65.2 237.888 64.1C240.488 62.9667 243.404 62.1667 246.638 61.7C249.871 61.2333 253.221 61 256.688 61C257.688 61 258.704 61.0333 259.738 61.1C260.771 61.1667 261.721 61.2333 262.588 61.3C263.488 61.3667 264.238 61.4 264.838 61.4C265.638 61.4 266.188 61.2667 266.488 61C266.788 60.7 266.938 60.2167 266.938 59.55C266.938 58.4833 266.804 57.5333 266.538 56.7C266.271 55.8667 265.888 55.1333 265.388 54.5C264.888 53.8667 264.288 53.3167 263.588 52.85C262.454 52.0833 261.038 51.5333 259.338 51.2C257.671 50.8333 255.871 50.65 253.938 50.65C251.604 50.65 249.471 50.9 247.538 51.4C245.638 51.8667 243.871 52.3667 242.238 52.9C240.638 53.4 239.104 53.65 237.638 53.65C235.471 53.65 233.788 53.3 232.588 52.6C231.388 51.8667 230.788 50.7167 230.788 49.15C230.788 47.6167 231.388 46.2333 232.588 45C233.788 43.7667 235.421 42.7167 237.488 41.85C239.554 40.95 241.938 40.2667 244.638 39.8C247.338 39.3333 250.188 39.1 253.188 39.1C259.221 39.1 264.288 39.8167 268.388 41.25C272.521 42.6833 275.638 45.05 277.738 48.35C279.838 51.6167 280.888 56.0667 280.888 61.7C280.888 63.2333 280.804 64.5833 280.638 65.75C280.471 66.8833 280.288 67.8833 280.088 68.75C279.888 69.5833 279.704 70.3167 279.538 70.95C279.371 71.5833 279.288 72.1667 279.288 72.7C279.288 73.5667 279.571 74.3833 280.137 75.15C280.704 75.9167 281.371 76.7 282.138 77.5C282.904 78.3 283.571 79.15 284.138 80.05C284.704 80.95 284.987 81.95 284.987 83.05C284.987 84.7167 284.438 85.9167 283.338 86.65C282.271 87.4167 281.071 87.8 279.738 87.8C278.571 87.8 277.621 87.45 276.888 86.75C276.188 86.0833 275.538 85.4167 274.938 84.75C274.371 84.0833 273.704 83.75 272.938 83.75C272.471 83.75 271.938 83.9 271.338 84.2C270.771 84.4667 270.071 84.8833 269.238 85.45C268.238 86.1833 266.938 87 265.338 87.9C263.738 88.8333 261.738 89.6333 259.338 90.3C256.971 90.9667 254.054 91.3 250.588 91.3ZM252.038 82.1C253.804 82.1 255.538 81.8333 257.238 81.3C258.938 80.7667 260.454 80.0167 261.788 79.05C263.154 78.05 264.238 76.8833 265.038 75.55C265.838 74.2167 266.238 72.7667 266.238 71.2C266.238 70.1667 265.888 69.4167 265.188 68.95C264.521 68.45 263.454 68.1333 261.988 68C260.521 67.8667 258.604 67.8 256.238 67.8C253.871 67.8 251.638 68.05 249.538 68.55C247.438 69.0167 245.738 69.8167 244.438 70.95C243.171 72.0833 242.538 73.6333 242.538 75.6C242.538 77.0667 242.921 78.2833 243.688 79.25C244.488 80.2167 245.588 80.9333 246.988 81.4C248.421 81.8667 250.104 82.1 252.038 82.1ZM319.705 89.55C317.805 89.55 315.722 88.7833 313.455 87.25C311.222 85.75 308.939 83.75 306.605 81.25C305.539 80.15 304.355 78.7333 303.055 77C301.755 75.2333 300.422 73.3333 299.055 71.3C297.722 69.2333 296.422 67.1333 295.155 65C293.889 62.8667 292.739 60.8333 291.705 58.9C290.672 56.9333 289.805 55.2 289.105 53.7C288.472 52.3667 287.972 51.1333 287.605 50C287.272 48.8667 287.105 47.8333 287.105 46.9C287.105 45.6 287.439 44.4833 288.105 43.55C288.805 42.6167 289.722 41.8833 290.855 41.35C291.989 40.8167 293.222 40.55 294.555 40.55C296.422 40.55 298.039 41 299.405 41.9C300.772 42.7667 302.022 44.0667 303.155 45.8C303.589 46.4667 304.155 47.4833 304.855 48.85C305.555 50.2167 306.339 51.8 307.205 53.6C308.072 55.3667 308.972 57.2167 309.905 59.15C310.872 61.0833 311.805 62.9667 312.705 64.8C313.605 66.6333 314.439 68.3 315.205 69.8C315.972 71.2667 316.705 72.4667 317.405 73.4C318.105 74.3 318.722 74.75 319.255 74.75C319.789 74.75 320.405 74.3 321.105 73.4C321.839 72.5 322.572 71.3 323.305 69.8C325.105 66.2667 326.905 62.4167 328.705 58.25C330.539 54.05 332.455 49.8167 334.455 45.55C335.589 43.75 336.755 42.4333 337.955 41.6C339.189 40.7667 340.739 40.35 342.605 40.35C344.639 40.35 346.289 40.8667 347.555 41.9C348.822 42.9 349.455 44.4167 349.455 46.45C349.455 47.4833 349.289 48.6 348.955 49.8C348.655 50.9667 348.222 52.2 347.655 53.5C347.122 54.9667 346.405 56.6833 345.505 58.65C344.605 60.5833 343.605 62.6333 342.505 64.8C341.439 66.9667 340.305 69.1 339.105 71.2C337.905 73.3 336.722 75.2667 335.555 77.1C334.389 78.9 333.272 80.4167 332.205 81.65C330.105 83.9833 327.972 85.8833 325.805 87.35C323.639 88.8167 321.605 89.55 319.705 89.55ZM384.815 89.7C379.115 89.7 374.165 88.8333 369.965 87.1C365.765 85.3667 362.515 82.7 360.215 79.1C357.948 75.5 356.815 70.9333 356.815 65.4C356.815 60.8 357.582 56.7833 359.115 53.35C360.648 49.8833 362.765 47 365.465 44.7C368.198 42.3667 371.348 40.6167 374.915 39.45C378.482 38.25 382.282 37.65 386.315 37.65C389.048 37.65 391.682 37.9333 394.215 38.5C396.748 39.0333 398.998 39.8833 400.965 41.05C402.965 42.2167 404.532 43.7167 405.665 45.55C406.832 47.3833 407.415 49.6 407.415 52.2C407.415 54.7 406.898 56.7667 405.865 58.4C404.865 60.0333 403.482 61.3333 401.715 62.3C399.982 63.2667 397.982 64 395.715 64.5C393.482 65 391.148 65.4 388.715 65.7C387.348 66 385.682 66.2667 383.715 66.5C381.782 66.7333 379.882 66.9167 378.015 67.05C376.148 67.1833 374.665 67.25 373.565 67.25C372.565 67.25 371.865 67.3833 371.465 67.65C371.098 67.8833 370.915 68.35 370.915 69.05C370.915 69.75 371.115 70.5833 371.515 71.55C371.915 72.5167 372.482 73.4333 373.215 74.3C374.582 75.9 376.165 76.9833 377.965 77.55C379.765 78.0833 381.998 78.35 384.665 78.35C387.132 78.35 389.465 78.0333 391.665 77.4C393.898 76.7333 395.982 76.0833 397.915 75.45C399.882 74.7833 401.715 74.45 403.415 74.45C405.048 74.45 406.332 74.7667 407.265 75.4C408.232 76 408.715 77.1833 408.715 78.95C408.715 80.5167 408.082 81.9667 406.815 83.3C405.582 84.6 403.865 85.7167 401.665 86.65C399.498 87.6167 396.965 88.3667 394.065 88.9C391.165 89.4333 388.082 89.7 384.815 89.7ZM381.215 60.75C383.548 60.75 385.748 60.5167 387.815 60.05C389.882 59.55 391.565 58.75 392.865 57.65C394.165 56.5167 394.815 54.9833 394.815 53.05C394.815 50.7167 393.965 49 392.265 47.9C390.598 46.8 388.282 46.25 385.315 46.25C383.548 46.25 381.832 46.5667 380.165 47.2C378.498 47.8 376.998 48.65 375.665 49.75C374.332 50.8167 373.265 52.05 372.465 53.45C371.698 54.85 371.315 56.3333 371.315 57.9C371.315 58.7667 371.648 59.4 372.315 59.8C372.982 60.2 374.032 60.4667 375.465 60.6C376.932 60.7 378.848 60.75 381.215 60.75ZM429.211 88.05C424.444 87.05 421.161 84.8167 419.361 81.35C417.594 77.8833 416.711 73.2333 416.711 67.4C416.711 65.8 416.761 64 416.861 62C416.961 60 417.094 57.9167 417.261 55.75C417.428 53.5833 417.611 51.4667 417.811 49.4C418.044 47.3 418.261 45.3667 418.461 43.6C418.694 41.8333 418.911 40.3667 419.111 39.2C419.911 34.5 421.128 31 422.761 28.7C424.394 26.4 426.594 25.25 429.361 25.25C431.194 25.25 432.544 25.6333 433.411 26.4C434.311 27.1333 434.894 28.1833 435.161 29.55C435.428 30.8833 435.561 32.4667 435.561 34.3C435.561 35.2667 435.544 36.3833 435.511 37.65C435.478 38.9167 435.428 40.2667 435.361 41.7C435.328 43.1 435.278 44.5667 435.211 46.1C435.144 47.6 435.094 49.1 435.061 50.6C435.028 52.1 435.011 53.5667 435.011 55C435.011 56.4333 435.028 57.7833 435.061 59.05C435.161 61.5167 435.361 63.5833 435.661 65.25C435.961 66.9167 436.478 68.25 437.211 69.25C437.978 70.2167 439.078 70.9333 440.511 71.4C441.978 71.8333 443.878 72.0833 446.211 72.15C448.744 72.3167 451.128 72.4833 453.361 72.65C455.594 72.7833 457.411 72.9333 458.811 73.1C460.544 73.0333 462.028 73.05 463.261 73.15C464.494 73.25 465.444 73.4667 466.111 73.8C466.711 74.1333 467.144 74.6 467.411 75.2C467.711 75.8 467.861 76.6167 467.861 77.65C467.861 79.35 467.361 80.8 466.361 82C465.394 83.2 464.061 84.2 462.361 85C460.694 85.8 458.794 86.4833 456.661 87.05C454.528 87.5833 452.028 88.0167 449.161 88.35C446.294 88.6833 443.428 88.85 440.561 88.85C439.361 88.85 438.061 88.8167 436.661 88.75C435.261 88.7167 433.911 88.6333 432.611 88.5C431.344 88.4 430.211 88.25 429.211 88.05ZM482.776 87.55C480.776 87.55 479.209 87.1667 478.076 86.4C476.942 85.6333 476.142 84.4833 475.676 82.95C475.242 81.3833 475.026 79.4333 475.026 77.1C475.026 76 475.059 74.7167 475.126 73.25C475.192 71.75 475.259 70.1667 475.326 68.5C475.426 66.8333 475.542 65.15 475.676 63.45C475.809 61.7167 475.959 60.05 476.126 58.45C476.292 56.85 476.459 55.4 476.626 54.1C476.826 52.8 477.026 51.75 477.226 50.95C478.059 48.55 479.292 46.7667 480.926 45.6C482.559 44.4 484.642 43.8 487.176 43.8C489.576 43.8 491.326 44.6833 492.426 46.45C493.526 48.1833 494.076 50.6167 494.076 53.75C494.076 54.8167 494.042 56.1667 493.976 57.8C493.909 59.4 493.809 61.15 493.676 63.05C493.542 64.9167 493.376 66.8333 493.176 68.8C493.009 70.7333 492.809 72.6 492.576 74.4C492.342 76.1667 492.092 77.75 491.826 79.15C491.559 80.5167 491.276 81.5833 490.976 82.35C490.142 84.2167 489.042 85.55 487.676 86.35C486.342 87.15 484.709 87.55 482.776 87.55ZM486.476 36.85C483.009 36.85 480.592 36.2833 479.226 35.15C477.859 33.9833 477.176 32.65 477.176 31.15C477.176 29.25 477.859 27.65 479.226 26.35C480.592 25.05 482.292 24.0667 484.326 23.4C486.359 22.7 488.376 22.35 490.376 22.35C491.876 22.35 493.242 22.6 494.476 23.1C495.742 23.5667 496.742 24.3167 497.476 25.35C498.242 26.35 498.626 27.6667 498.626 29.3C498.626 31.1 498.059 32.5667 496.926 33.7C495.826 34.8 494.342 35.6 492.476 36.1C490.642 36.6 488.642 36.85 486.476 36.85ZM533.888 87.1C531.721 87.1 529.604 86.7833 527.538 86.15C525.504 85.55 523.788 84.4667 522.388 82.9C520.988 81.3333 520.204 79.15 520.038 76.35C519.938 75.4167 519.854 74.4 519.788 73.3C519.721 72.1667 519.654 70.9667 519.588 69.7C519.554 68.4333 519.504 67.1333 519.438 65.8C519.404 64.4333 519.371 63.0667 519.338 61.7C519.338 60.3 519.321 58.9333 519.288 57.6C519.288 56.1 518.988 55.1333 518.388 54.7C517.788 54.2333 516.921 53.95 515.788 53.85C515.154 53.7833 514.371 53.7333 513.438 53.7C512.538 53.6333 511.604 53.5667 510.638 53.5C509.671 53.4333 508.771 53.3667 507.938 53.3C506.504 53.1333 505.388 52.6 504.588 51.7C503.821 50.8 503.438 49.5333 503.438 47.9C503.438 46.7667 503.671 45.9 504.138 45.3C504.604 44.7 505.238 44.25 506.038 43.95C506.838 43.6167 507.738 43.3667 508.738 43.2C510.404 43.0333 511.804 42.8667 512.938 42.7C514.104 42.5333 515.171 42.3833 516.138 42.25C517.171 42.1167 517.938 41.8333 518.438 41.4C518.938 40.9333 519.238 40.1333 519.338 39C519.438 38.2667 519.521 37.4667 519.588 36.6C519.654 35.7333 519.738 34.8667 519.838 34C519.938 33.1333 520.054 32.3833 520.188 31.75C520.654 30.05 521.288 28.8 522.088 28C522.921 27.2 524.221 26.8 525.988 26.8C527.421 26.8 528.554 27.0167 529.388 27.45C530.221 27.85 530.854 28.4833 531.288 29.35C531.721 30.1833 532.054 31.2833 532.288 32.65C532.388 33.5833 532.471 34.4167 532.538 35.15C532.604 35.8833 532.654 36.5667 532.688 37.2C532.754 37.8 532.821 38.3667 532.888 38.9C532.954 39.4333 533.021 39.9667 533.088 40.5C533.188 41.5 533.538 42.2333 534.138 42.7C534.738 43.1333 535.538 43.4167 536.538 43.55C537.438 43.65 538.371 43.7667 539.338 43.9C540.338 44 541.304 44.1 542.238 44.2C543.171 44.2667 543.988 44.3667 544.688 44.5C546.188 44.7 547.488 45.15 548.588 45.85C549.688 46.5167 550.238 47.6667 550.238 49.3C550.238 50.7333 549.788 51.8833 548.888 52.75C547.988 53.6167 546.821 54.1 545.388 54.2C543.521 54.2667 541.771 54.3167 540.138 54.35C538.504 54.35 537.221 54.3833 536.288 54.45C535.554 54.4833 534.938 54.7 534.438 55.1C533.971 55.5 533.704 56.4333 533.638 57.9C533.604 59 533.588 60.1167 533.588 61.25C533.588 62.3833 533.604 63.5167 533.638 64.65C533.671 65.7833 533.704 66.9 533.738 68C533.804 69.0667 533.871 70.0833 533.938 71.05C534.038 72.0167 534.138 72.9167 534.238 73.75C534.438 75.45 534.871 76.6333 535.538 77.3C536.204 77.9333 537.171 78.25 538.438 78.25C539.771 78.25 540.821 77.9833 541.588 77.45C542.388 76.9167 543.088 76.3833 543.688 75.85C544.288 75.3167 544.954 75.05 545.688 75.05C546.721 75.05 547.454 75.3167 547.888 75.85C548.321 76.3833 548.538 77.1667 548.538 78.2C548.538 79.4667 548.104 80.6333 547.238 81.7C546.371 82.7667 545.221 83.7167 543.788 84.55C542.354 85.35 540.771 85.9667 539.038 86.4C537.338 86.8667 535.621 87.1 533.888 87.1Z" fill="black"/>
<path fill-rule="evenodd" clip-rule="evenodd" d="M11.1797 70.915C18.6328 81.0983 29.9062 92.1267 45 104C60.0938 92.1267 71.3672 81.0983 78.8203 70.915C86.2734 60.7316 90 51.3067 90 42.64C90 29.64 85.4766 19.2833 76.4297 11.57C67.3828 3.85667 56.9062 0 45 0C33.0938 0 22.6171 3.85667 13.5703 11.57C4.52339 19.2833 0 29.64 0 42.64C0 47.5595 1.20075 52.7234 3.60225 58.1316L17.3737 51.868L34.6538 36.3355L18.4536 52.5433L4.14393 59.3127C4.35908 59.7674 4.5826 60.2238 4.81451 60.6819L19.5337 53.894L36.8138 38.3615L20.6136 54.5693L5.45456 61.9109C5.66228 62.299 5.87593 62.6882 6.09552 63.0787L21.6937 55.92L38.9738 40.3875L22.7736 56.5953L6.80303 64.3063C6.97342 64.595 7.147 64.8843 7.32379 65.1742L23.1338 57.9459L40.4138 42.4135L24.2136 58.6212L8.0607 66.3575C9.01554 67.8594 10.0552 69.3786 11.1797 70.915ZM38.9856 38.3028L34.6723 36.3031L36.1328 35.1947L39.531 35.6519L44.956 31.5349L34.4419 26.6776L36.3893 25.1997L49.3392 28.1553L54.7976 24.0662C55.1918 23.7671 55.6785 23.6241 56.2578 23.6372C56.8372 23.6503 57.316 23.8151 57.6943 24.1316C58.0727 24.4481 58.2559 24.8373 58.244 25.299C58.2322 25.7607 58.0292 26.1411 57.6351 26.4402L52.21 30.5572L55.2835 41.0079L53.3361 42.4858L47.7601 33.8809L42.3351 37.9979L42.7425 40.7248L41.2819 41.8332L38.9856 38.3028Z" fill="black"/>
</svg>
