<svg width="179" height="150" viewBox="0 0 179 150" fill="none" xmlns="http://www.w3.org/2000/svg">
<path d="M12.76 130.98C11.8667 130.98 11.1867 130.713 10.72 130.18C10.2667 129.66 9.98667 128.853 9.88 127.76C9.85333 127.333 9.83333 126.787 9.82 126.12C9.80667 125.453 9.8 124.707 9.8 123.88C9.8 123.053 9.80667 122.193 9.82 121.3C9.83333 120.393 9.84 119.5 9.84 118.62C9.85333 117.727 9.86 116.887 9.86 116.1C9.87333 115.313 9.88 114.613 9.88 114C9.88 113.147 9.77333 112.56 9.56 112.24C9.34667 111.92 8.86667 111.76 8.12 111.76C7.33333 111.76 6.54 111.82 5.74 111.94C4.95333 112.06 4.16667 112.12 3.38 112.12C2.91333 112.12 2.49333 112.033 2.12 111.86C1.74667 111.673 1.45333 111.4 1.24 111.04C1.04 110.68 0.94 110.247 0.94 109.74C0.94 109.153 1.20667 108.647 1.74 108.22C2.27333 107.793 3 107.44 3.92 107.16C4.85333 106.867 5.93333 106.633 7.16 106.46C8.38667 106.287 9.7 106.167 11.1 106.1C12.5 106.02 13.92 105.98 15.36 105.98C16.4 105.98 17.4333 106 18.46 106.04C19.5 106.08 20.4733 106.167 21.38 106.3C22.3 106.42 23.1067 106.607 23.8 106.86C24.4933 107.113 25.04 107.453 25.44 107.88C25.8533 108.293 26.06 108.813 26.06 109.44C26.06 110.013 25.9467 110.5 25.72 110.9C25.5067 111.287 25.1933 111.58 24.78 111.78C24.3667 111.98 23.86 112.08 23.26 112.08C22.54 112.08 21.96 112.06 21.52 112.02C21.08 111.98 20.5467 111.96 19.92 111.96C19.0267 111.96 18.3667 112.04 17.94 112.2C17.5267 112.36 17.26 112.66 17.14 113.1C17.02 113.54 16.9467 114.193 16.92 115.06C16.8933 115.593 16.86 116.167 16.82 116.78C16.7933 117.393 16.7533 118.033 16.7 118.7C16.66 119.367 16.6067 120.04 16.54 120.72C16.4867 121.4 16.42 122.073 16.34 122.74C16.2733 123.393 16.2067 124.033 16.14 124.66C16.0733 125.273 16 125.853 15.92 126.4C15.84 126.947 15.76 127.44 15.68 127.88C15.4667 128.64 15.2467 129.247 15.02 129.7C14.7933 130.153 14.5067 130.48 14.16 130.68C13.8133 130.88 13.3467 130.98 12.76 130.98ZM33.2713 130.6C32.7913 130.6 32.3646 130.52 31.9913 130.36C31.6179 130.2 31.2846 129.98 30.9913 129.7C30.7113 129.42 30.4513 129.087 30.2113 128.7C29.9446 128.193 29.6979 127.613 29.4713 126.96C29.2579 126.307 29.0779 125.62 28.9313 124.9C28.7846 124.18 28.6713 123.46 28.5913 122.74C28.5113 122.02 28.4713 121.34 28.4713 120.7C28.4713 118.5 28.9046 116.64 29.7713 115.12C30.6379 113.587 31.8713 112.42 33.4713 111.62C35.0846 110.82 36.9913 110.42 39.1913 110.42C40.1646 110.42 41.1046 110.493 42.0113 110.64C42.9179 110.787 43.7313 111.013 44.4513 111.32C45.1713 111.613 45.7379 111.987 46.1513 112.44C46.5779 112.88 46.7913 113.393 46.7913 113.98C46.7913 114.513 46.6846 114.933 46.4713 115.24C46.2579 115.547 45.9779 115.76 45.6313 115.88C45.2846 116 44.9246 116.06 44.5513 116.06C43.8846 116.06 43.1913 115.96 42.4713 115.76C41.7646 115.56 40.8713 115.46 39.7913 115.46C38.2713 115.46 37.1179 115.927 36.3313 116.86C35.5579 117.78 35.1713 119.06 35.1713 120.7C35.1713 121.3 35.1979 121.887 35.2513 122.46C35.3046 123.02 35.3713 123.56 35.4513 124.08C35.5446 124.6 35.6313 125.087 35.7113 125.54C35.8046 125.993 35.8779 126.4 35.9313 126.76C35.9846 127.12 36.0113 127.433 36.0113 127.7C36.0113 128.7 35.7846 129.433 35.3313 129.9C34.8913 130.367 34.2046 130.6 33.2713 130.6ZM56.635 132.12C55.5283 132.12 54.4683 132.013 53.455 131.8C52.455 131.6 51.555 131.26 50.755 130.78C49.9683 130.313 49.3483 129.693 48.895 128.92C48.4417 128.147 48.215 127.207 48.215 126.1C48.215 124.887 48.515 123.887 49.115 123.1C49.715 122.3 50.5283 121.68 51.555 121.24C52.595 120.787 53.7617 120.467 55.055 120.28C56.3483 120.093 57.6883 120 59.075 120C59.475 120 59.8817 120.013 60.295 120.04C60.7083 120.067 61.0883 120.093 61.435 120.12C61.795 120.147 62.095 120.16 62.335 120.16C62.655 120.16 62.875 120.107 62.995 120C63.115 119.88 63.175 119.687 63.175 119.42C63.175 118.993 63.1217 118.613 63.015 118.28C62.9083 117.947 62.755 117.653 62.555 117.4C62.355 117.147 62.115 116.927 61.835 116.74C61.3817 116.433 60.815 116.213 60.135 116.08C59.4683 115.933 58.7483 115.86 57.975 115.86C57.0417 115.86 56.1883 115.96 55.415 116.16C54.655 116.347 53.9483 116.547 53.295 116.76C52.655 116.96 52.0417 117.06 51.455 117.06C50.5883 117.06 49.915 116.92 49.435 116.64C48.955 116.347 48.715 115.887 48.715 115.26C48.715 114.647 48.955 114.093 49.435 113.6C49.915 113.107 50.5683 112.687 51.395 112.34C52.2217 111.98 53.175 111.707 54.255 111.52C55.335 111.333 56.475 111.24 57.675 111.24C60.0883 111.24 62.115 111.527 63.755 112.1C65.4083 112.673 66.655 113.62 67.495 114.94C68.335 116.247 68.755 118.027 68.755 120.28C68.755 120.893 68.7217 121.433 68.655 121.9C68.5883 122.353 68.515 122.753 68.435 123.1C68.355 123.433 68.2817 123.727 68.215 123.98C68.1483 124.233 68.115 124.467 68.115 124.68C68.115 125.027 68.2283 125.353 68.455 125.66C68.6817 125.967 68.9483 126.28 69.255 126.6C69.5617 126.92 69.8283 127.26 70.055 127.62C70.2817 127.98 70.395 128.38 70.395 128.82C70.395 129.487 70.175 129.967 69.735 130.26C69.3083 130.567 68.8283 130.72 68.295 130.72C67.8283 130.72 67.4483 130.58 67.155 130.3C66.875 130.033 66.615 129.767 66.375 129.5C66.1483 129.233 65.8817 129.1 65.575 129.1C65.3883 129.1 65.175 129.16 64.935 129.28C64.7083 129.387 64.4283 129.553 64.095 129.78C63.695 130.073 63.175 130.4 62.535 130.76C61.895 131.133 61.095 131.453 60.135 131.72C59.1883 131.987 58.0217 132.12 56.635 132.12ZM57.215 128.44C57.9217 128.44 58.615 128.333 59.295 128.12C59.975 127.907 60.5817 127.607 61.115 127.22C61.6617 126.82 62.095 126.353 62.415 125.82C62.735 125.287 62.895 124.707 62.895 124.08C62.895 123.667 62.755 123.367 62.475 123.18C62.2083 122.98 61.7817 122.853 61.195 122.8C60.6083 122.747 59.8417 122.72 58.895 122.72C57.9483 122.72 57.055 122.82 56.215 123.02C55.375 123.207 54.695 123.527 54.175 123.98C53.6683 124.433 53.415 125.053 53.415 125.84C53.415 126.427 53.5683 126.913 53.875 127.3C54.195 127.687 54.635 127.973 55.195 128.16C55.7683 128.347 56.4417 128.44 57.215 128.44ZM84.2822 131.42C83.5222 131.42 82.6889 131.113 81.7822 130.5C80.8889 129.9 79.9755 129.1 79.0422 128.1C78.6155 127.66 78.1422 127.093 77.6222 126.4C77.1022 125.693 76.5689 124.933 76.0222 124.12C75.4889 123.293 74.9689 122.453 74.4622 121.6C73.9555 120.747 73.4955 119.933 73.0822 119.16C72.6689 118.373 72.3222 117.68 72.0422 117.08C71.7889 116.547 71.5889 116.053 71.4422 115.6C71.3089 115.147 71.2422 114.733 71.2422 114.36C71.2422 113.84 71.3755 113.393 71.6422 113.02C71.9222 112.647 72.2889 112.353 72.7422 112.14C73.1955 111.927 73.6889 111.82 74.2222 111.82C74.9689 111.82 75.6155 112 76.1622 112.36C76.7089 112.707 77.2089 113.227 77.6622 113.92C77.8355 114.187 78.0622 114.593 78.3422 115.14C78.6222 115.687 78.9355 116.32 79.2822 117.04C79.6289 117.747 79.9889 118.487 80.3622 119.26C80.7489 120.033 81.1222 120.787 81.4822 121.52C81.8422 122.253 82.1755 122.92 82.4822 123.52C82.7889 124.107 83.0822 124.587 83.3622 124.96C83.6422 125.32 83.8889 125.5 84.1022 125.5C84.3155 125.5 84.5622 125.32 84.8422 124.96C85.1355 124.6 85.4289 124.12 85.7222 123.52C86.4422 122.107 87.1622 120.567 87.8822 118.9C88.6155 117.22 89.3822 115.527 90.1822 113.82C90.6355 113.1 91.1022 112.573 91.5822 112.24C92.0755 111.907 92.6955 111.74 93.4422 111.74C94.2555 111.74 94.9155 111.947 95.4222 112.36C95.9289 112.76 96.1822 113.367 96.1822 114.18C96.1822 114.593 96.1155 115.04 95.9822 115.52C95.8622 115.987 95.6889 116.48 95.4622 117C95.2489 117.587 94.9622 118.273 94.6022 119.06C94.2422 119.833 93.8422 120.653 93.4022 121.52C92.9755 122.387 92.5222 123.24 92.0422 124.08C91.5622 124.92 91.0889 125.707 90.6222 126.44C90.1555 127.16 89.7089 127.767 89.2822 128.26C88.4422 129.193 87.5889 129.953 86.7222 130.54C85.8555 131.127 85.0422 131.42 84.2822 131.42ZM110.326 131.48C108.046 131.48 106.066 131.133 104.386 130.44C102.706 129.747 101.406 128.68 100.486 127.24C99.5793 125.8 99.1259 123.973 99.1259 121.76C99.1259 119.92 99.4326 118.313 100.046 116.94C100.659 115.553 101.506 114.4 102.586 113.48C103.679 112.547 104.939 111.847 106.366 111.38C107.793 110.9 109.313 110.66 110.926 110.66C112.019 110.66 113.073 110.773 114.086 111C115.099 111.213 115.999 111.553 116.786 112.02C117.586 112.487 118.213 113.087 118.666 113.82C119.133 114.553 119.366 115.44 119.366 116.48C119.366 117.48 119.159 118.307 118.746 118.96C118.346 119.613 117.793 120.133 117.086 120.52C116.393 120.907 115.593 121.2 114.686 121.4C113.793 121.6 112.859 121.76 111.886 121.88C111.339 122 110.673 122.107 109.886 122.2C109.113 122.293 108.353 122.367 107.606 122.42C106.859 122.473 106.266 122.5 105.826 122.5C105.426 122.5 105.146 122.553 104.986 122.66C104.839 122.753 104.766 122.94 104.766 123.22C104.766 123.5 104.846 123.833 105.006 124.22C105.166 124.607 105.393 124.973 105.686 125.32C106.233 125.96 106.866 126.393 107.586 126.62C108.306 126.833 109.199 126.94 110.266 126.94C111.253 126.94 112.186 126.813 113.066 126.56C113.959 126.293 114.793 126.033 115.566 125.78C116.353 125.513 117.086 125.38 117.766 125.38C118.419 125.38 118.933 125.507 119.306 125.76C119.693 126 119.886 126.473 119.886 127.18C119.886 127.807 119.633 128.387 119.126 128.92C118.633 129.44 117.946 129.887 117.066 130.26C116.199 130.647 115.186 130.947 114.026 131.16C112.866 131.373 111.633 131.48 110.326 131.48ZM108.886 119.9C109.819 119.9 110.699 119.807 111.526 119.62C112.353 119.42 113.026 119.1 113.546 118.66C114.066 118.207 114.326 117.593 114.326 116.82C114.326 115.887 113.986 115.2 113.306 114.76C112.639 114.32 111.713 114.1 110.526 114.1C109.819 114.1 109.133 114.227 108.466 114.48C107.799 114.72 107.199 115.06 106.666 115.5C106.133 115.927 105.706 116.42 105.386 116.98C105.079 117.54 104.926 118.133 104.926 118.76C104.926 119.107 105.059 119.36 105.326 119.52C105.593 119.68 106.013 119.787 106.586 119.84C107.173 119.88 107.939 119.9 108.886 119.9ZM128.084 130.82C126.178 130.42 124.864 129.527 124.144 128.14C123.438 126.753 123.084 124.893 123.084 122.56C123.084 121.92 123.104 121.2 123.144 120.4C123.184 119.6 123.238 118.767 123.304 117.9C123.371 117.033 123.444 116.187 123.524 115.36C123.618 114.52 123.704 113.747 123.784 113.04C123.878 112.333 123.964 111.747 124.044 111.28C124.364 109.4 124.851 108 125.504 107.08C126.158 106.16 127.038 105.7 128.144 105.7C128.878 105.7 129.418 105.853 129.764 106.16C130.124 106.453 130.358 106.873 130.464 107.42C130.571 107.953 130.624 108.587 130.624 109.32C130.624 109.707 130.618 110.153 130.604 110.66C130.591 111.167 130.571 111.707 130.544 112.28C130.531 112.84 130.511 113.427 130.484 114.04C130.458 114.64 130.438 115.24 130.424 115.84C130.411 116.44 130.404 117.027 130.404 117.6C130.404 118.173 130.411 118.713 130.424 119.22C130.464 120.207 130.544 121.033 130.664 121.7C130.784 122.367 130.991 122.9 131.284 123.3C131.591 123.687 132.031 123.973 132.604 124.16C133.191 124.333 133.951 124.433 134.884 124.46C135.898 124.527 136.851 124.593 137.744 124.66C138.638 124.713 139.364 124.773 139.924 124.84C140.618 124.813 141.211 124.82 141.704 124.86C142.198 124.9 142.578 124.987 142.844 125.12C143.084 125.253 143.258 125.44 143.364 125.68C143.484 125.92 143.544 126.247 143.544 126.66C143.544 127.34 143.344 127.92 142.944 128.4C142.558 128.88 142.024 129.28 141.344 129.6C140.678 129.92 139.918 130.193 139.064 130.42C138.211 130.633 137.211 130.807 136.064 130.94C134.918 131.073 133.771 131.14 132.624 131.14C132.144 131.14 131.624 131.127 131.064 131.1C130.504 131.087 129.964 131.053 129.444 131C128.938 130.96 128.484 130.9 128.084 130.82ZM149.51 130.62C148.71 130.62 148.084 130.467 147.63 130.16C147.177 129.853 146.857 129.393 146.67 128.78C146.497 128.153 146.41 127.373 146.41 126.44C146.41 126 146.424 125.487 146.45 124.9C146.477 124.3 146.504 123.667 146.53 123C146.57 122.333 146.617 121.66 146.67 120.98C146.724 120.287 146.784 119.62 146.85 118.98C146.917 118.34 146.984 117.76 147.05 117.24C147.13 116.72 147.21 116.3 147.29 115.98C147.624 115.02 148.117 114.307 148.77 113.84C149.424 113.36 150.257 113.12 151.27 113.12C152.23 113.12 152.93 113.473 153.37 114.18C153.81 114.873 154.03 115.847 154.03 117.1C154.03 117.527 154.017 118.067 153.99 118.72C153.964 119.36 153.924 120.06 153.87 120.82C153.817 121.567 153.75 122.333 153.67 123.12C153.604 123.893 153.524 124.64 153.43 125.36C153.337 126.067 153.237 126.7 153.13 127.26C153.024 127.807 152.91 128.233 152.79 128.54C152.457 129.287 152.017 129.82 151.47 130.14C150.937 130.46 150.284 130.62 149.51 130.62ZM150.99 110.34C149.604 110.34 148.637 110.113 148.09 109.66C147.544 109.193 147.27 108.66 147.27 108.06C147.27 107.3 147.544 106.66 148.09 106.14C148.637 105.62 149.317 105.227 150.13 104.96C150.944 104.68 151.75 104.54 152.55 104.54C153.15 104.54 153.697 104.64 154.19 104.84C154.697 105.027 155.097 105.327 155.39 105.74C155.697 106.14 155.85 106.667 155.85 107.32C155.85 108.04 155.624 108.627 155.17 109.08C154.73 109.52 154.137 109.84 153.39 110.04C152.657 110.24 151.857 110.34 150.99 110.34ZM169.955 130.44C169.088 130.44 168.242 130.313 167.415 130.06C166.602 129.82 165.915 129.387 165.355 128.76C164.795 128.133 164.482 127.26 164.415 126.14C164.375 125.767 164.342 125.36 164.315 124.92C164.288 124.467 164.262 123.987 164.235 123.48C164.222 122.973 164.202 122.453 164.175 121.92C164.162 121.373 164.148 120.827 164.135 120.28C164.135 119.72 164.128 119.173 164.115 118.64C164.115 118.04 163.995 117.653 163.755 117.48C163.515 117.293 163.168 117.18 162.715 117.14C162.462 117.113 162.148 117.093 161.775 117.08C161.415 117.053 161.042 117.027 160.655 117C160.268 116.973 159.908 116.947 159.575 116.92C159.002 116.853 158.555 116.64 158.235 116.28C157.928 115.92 157.775 115.413 157.775 114.76C157.775 114.307 157.868 113.96 158.055 113.72C158.242 113.48 158.495 113.3 158.815 113.18C159.135 113.047 159.495 112.947 159.895 112.88C160.562 112.813 161.122 112.747 161.575 112.68C162.042 112.613 162.468 112.553 162.855 112.5C163.268 112.447 163.575 112.333 163.775 112.16C163.975 111.973 164.095 111.653 164.135 111.2C164.175 110.907 164.208 110.587 164.235 110.24C164.262 109.893 164.295 109.547 164.335 109.2C164.375 108.853 164.422 108.553 164.475 108.3C164.662 107.62 164.915 107.12 165.235 106.8C165.568 106.48 166.088 106.32 166.795 106.32C167.368 106.32 167.822 106.407 168.155 106.58C168.488 106.74 168.742 106.993 168.915 107.34C169.088 107.673 169.222 108.113 169.315 108.66C169.355 109.033 169.388 109.367 169.415 109.66C169.442 109.953 169.462 110.227 169.475 110.48C169.502 110.72 169.528 110.947 169.555 111.16C169.582 111.373 169.608 111.587 169.635 111.8C169.675 112.2 169.815 112.493 170.055 112.68C170.295 112.853 170.615 112.967 171.015 113.02C171.375 113.06 171.748 113.107 172.135 113.16C172.535 113.2 172.922 113.24 173.295 113.28C173.668 113.307 173.995 113.347 174.275 113.4C174.875 113.48 175.395 113.66 175.835 113.94C176.275 114.207 176.495 114.667 176.495 115.32C176.495 115.893 176.315 116.353 175.955 116.7C175.595 117.047 175.128 117.24 174.555 117.28C173.808 117.307 173.108 117.327 172.455 117.34C171.802 117.34 171.288 117.353 170.915 117.38C170.622 117.393 170.375 117.48 170.175 117.64C169.988 117.8 169.882 118.173 169.855 118.76C169.842 119.2 169.835 119.647 169.835 120.1C169.835 120.553 169.842 121.007 169.855 121.46C169.868 121.913 169.882 122.36 169.895 122.8C169.922 123.227 169.948 123.633 169.975 124.02C170.015 124.407 170.055 124.767 170.095 125.1C170.175 125.78 170.348 126.253 170.615 126.52C170.882 126.773 171.268 126.9 171.775 126.9C172.308 126.9 172.728 126.793 173.035 126.58C173.355 126.367 173.635 126.153 173.875 125.94C174.115 125.727 174.382 125.62 174.675 125.62C175.088 125.62 175.382 125.727 175.555 125.94C175.728 126.153 175.815 126.467 175.815 126.88C175.815 127.387 175.642 127.853 175.295 128.28C174.948 128.707 174.488 129.087 173.915 129.42C173.342 129.74 172.708 129.987 172.015 130.16C171.335 130.347 170.648 130.44 169.955 130.44Z" fill="black"/>
<path fill-rule="evenodd" clip-rule="evenodd" d="M59.3164 63.4143C65.5273 72.5206 74.9219 82.3825 87.5 93C100.078 82.3825 109.473 72.5206 115.684 63.4143C121.895 54.3081 125 45.88 125 38.13C125 26.505 121.23 17.2437 113.691 10.3463C106.152 3.44875 97.4219 0 87.5 0C77.5781 0 68.8476 3.44875 61.3086 10.3463C53.7695 17.2437 50 26.505 50 38.13C50 42.5292 51.0006 47.1469 53.0018 51.983L64.478 46.3819L78.8781 32.4923L65.378 46.9858L53.4532 53.0391C53.6325 53.4458 53.8188 53.8539 54.0121 54.2635L66.278 48.1936L80.6781 34.304L67.178 48.7975L54.5454 55.3626C54.7185 55.7096 54.8966 56.0577 55.0796 56.4069L68.078 50.0053L82.4781 36.1157L68.978 50.6092L55.6692 57.5046C55.8111 57.7627 55.9558 58.0215 56.1031 58.2807L69.2781 51.817L83.6781 37.9274L70.178 52.4209L56.7172 59.3389C57.5129 60.6819 58.3793 62.0404 59.3164 63.4143ZM82.4879 34.2515L78.8935 32.4633L80.1106 31.4721L82.9424 31.8809L87.4633 28.1994L78.7015 23.8559L80.3244 22.5343L91.1159 25.1773L95.6646 21.5207C95.9931 21.2532 96.3987 21.1253 96.8815 21.137C97.3643 21.1487 97.7633 21.2961 98.0786 21.5792C98.3938 21.8622 98.5465 22.2102 98.5367 22.6231C98.5268 23.036 98.3576 23.3762 98.0292 23.6436L93.5083 27.3252L96.0696 36.6705L94.4467 37.992L89.8001 30.2973L85.2792 33.9789L85.6187 36.4173L84.4015 37.4085L82.4879 34.2515Z" fill="black"/>
</svg>
